<?xml version="1.0" encoding="UTF-8"?>
<svg width="1024px" height="261px" viewBox="0 0 1024 261" version="1.1" xmlns="http://www.w3.org/2000/svg" xmlns:xlink="http://www.w3.org/1999/xlink">
    <!-- Generator: Sketch 50.2 (55047) - http://www.bohemiancoding.com/sketch -->
    <title>Black Logo</title>
    <desc>Created with Sketch.</desc>
    <defs></defs>
    <g id="Black-Logo" stroke="none" stroke-width="1" fill="none" fill-rule="evenodd">
        <polyline id="Fill-1" fill="#000000" points="164.226731 93.0094164 104.173996 93.0094164 104.173996 117.002549 159.30053 117.002549 159.30053 136.627868 104.173996 136.627868 104.173996 165.684343 167 165.684343 167 186 81 186 81 73 164.226731 73 164.226731 93.0094164"></polyline>
        <polygon id="Fill-2" fill="#000000" points="183 186 205 186 205 73 183 73"></polygon>
        <path d="M248.397096,123.888544 C245.307122,127.08387 243.365818,131.412938 242.570585,136.875747 L280.263592,136.875747 C279.865975,131.053268 277.922072,126.63298 274.434482,123.617489 C270.946891,120.601997 266.622486,119.092948 261.458669,119.092948 C255.840062,119.092948 251.489669,120.690611 248.397096,123.888544 Z M281.128993,104.93291 C286.965899,107.554849 291.784076,111.693657 295.586121,117.346726 C299.016539,122.332582 301.238513,128.115966 302.254644,134.696878 C302.841973,138.551599 303.083662,144.103022 302.974512,151.351148 L242.032633,151.351148 C242.373076,159.769503 245.288931,165.670171 250.782796,169.058364 C254.124853,171.164256 258.145198,172.214595 262.846429,172.214595 C267.830929,172.214595 271.879861,170.932295 274.993224,168.365087 C276.69284,166.978535 278.194946,165.055084 279.496946,162.592128 L301.833639,162.592128 C301.243711,167.570165 298.540958,172.626391 293.72538,177.7582 C286.22784,185.918531 275.736481,190 262.240908,190 C251.107646,190 241.28158,186.557075 232.767908,179.673832 C224.256836,172.790588 220,161.591308 220,146.075993 C220,131.540647 223.843626,120.393493 231.52828,112.637138 C239.212934,104.880784 249.187132,101 261.450873,101 C268.730114,101 275.292086,102.31097 281.128993,104.93291 Z" id="Fill-3" fill="#000000"></path>
        <path d="M418.72987,103.161303 C422.311688,104.603914 425.561039,107.123256 428.475325,110.727171 C430.825974,113.659434 432.412987,117.263348 433.231169,121.536299 C433.742857,124.366639 434,128.508919 434,133.963139 L433.844156,187 L411.441558,187 L411.441558,133.424773 C411.441558,130.23378 410.92987,127.607287 409.906494,125.547908 C407.961039,121.638223 404.381818,119.680767 399.166234,119.680767 C393.12987,119.680767 388.961039,122.205336 386.65974,127.246634 C385.483117,129.925396 384.893506,133.142523 384.893506,136.898016 L384.893506,187 L362.875325,187 L362.875325,136.898016 C362.875325,131.906373 362.363636,128.278938 361.34026,126.013098 C359.498701,121.946607 355.890909,119.913362 350.522078,119.913362 C344.280519,119.913362 340.085714,121.946607 337.937662,126.013098 C336.761039,128.328593 336.176623,131.778315 336.176623,136.357036 L336.176623,187 L314,187 L314,103.007111 L335.251948,103.007111 L335.251948,115.282372 C337.963636,110.907497 340.519481,107.792293 342.924675,105.939375 C347.171429,102.649072 352.67013,101 359.423377,101 C365.815584,101 370.981818,102.416477 374.922078,105.246817 C378.090909,107.870696 380.493506,111.242015 382.132468,115.358161 C384.994805,110.418786 388.550649,106.791351 392.797403,104.473243 C397.298701,102.157748 402.309091,101 407.833766,101 C411.516883,101 415.150649,101.721305 418.72987,103.161303" id="Fill-4" fill="#000000"></path>
        <path d="M475.397395,123.888544 C472.30219,127.08387 470.360866,131.412938 469.568223,136.875747 L507.259027,136.875747 C506.861407,131.053268 504.920082,126.63298 501.432455,123.617489 C497.942229,120.601997 493.617779,119.092948 488.456506,119.092948 C482.840438,119.092948 478.487401,120.690611 475.397395,123.888544 Z M508.127036,104.93291 C513.961405,107.554849 518.78483,111.693657 522.586916,117.346726 C526.012171,122.332582 528.236768,128.115966 529.25291,134.696878 C529.842844,138.551599 530.081936,144.103022 529.975384,151.351148 L469.030266,151.351148 C469.370712,159.769503 472.286598,165.670171 477.783119,169.058364 C481.122613,171.164256 485.145599,172.214595 489.84428,172.214595 C494.826234,172.214595 498.877807,170.932295 501.993802,168.365087 C503.690836,166.978535 505.19036,165.055084 506.494972,162.592128 L528.8319,162.592128 C528.244564,167.570165 525.541783,172.626391 520.720957,177.7582 C513.225937,185.918531 502.731869,190 489.241352,190 C478.105374,190 468.279205,186.557075 459.768043,179.673832 C451.254282,172.790588 447,161.591308 447,146.075993 C447,131.540647 450.838469,120.393493 458.523204,112.637138 C466.207939,104.880784 476.18484,101 488.44871,101 C495.730626,101 502.290068,102.31097 508.127036,104.93291 Z" id="Fill-5" fill="#000000"></path>
        <path d="M609.732196,107.819268 C615.24668,112.366317 618,119.9056 618,130.437117 L618,187 L595.447877,187 L595.447877,135.907662 C595.447877,131.491051 594.859561,128.099678 593.685543,125.736152 C591.536228,121.421283 587.449391,119.263848 581.417188,119.263848 C574.004404,119.263848 568.918737,122.423042 566.160187,128.741431 C564.72731,132.080629 564.013487,136.345932 564.013487,141.532124 L564.013487,187 L542,187 L542,103.157435 L563.315351,103.157435 L563.315351,115.410726 C566.136655,111.095856 568.803688,107.986228 571.316452,106.084451 C575.829492,102.695686 581.545311,101 588.469139,101 C597.134384,101 604.220326,103.27222 609.732196,107.819268" id="Fill-6" fill="#000000"></path>
        <path d="M629,118.760136 L629,103.241588 L640.692061,103.241588 L640.692061,80 L662.383567,80 L662.383567,103.241588 L676,103.241588 L676,118.760136 L662.383567,118.760136 L662.383567,162.794921 C662.383567,166.211279 662.818439,168.338738 663.690786,169.179887 C664.563134,170.021036 667.232257,170.440316 671.690343,170.440316 C672.356973,170.440316 673.062663,170.429964 673.807413,170.401494 C674.54956,170.378201 675.278686,170.339378 676,170.287615 L676,186.572256 L665.612555,186.955302 C655.256358,187.312467 648.178625,185.529231 644.384564,181.603008 C641.923763,179.108031 640.692061,175.256864 640.692061,170.059858 L640.692061,118.760136 L629,118.760136" id="Fill-7" fill="#000000"></path>
        <path d="M834.236264,114.691764 C836.713628,117.25681 840.145218,118.538031 844.53879,118.538031 C848.981495,118.538031 852.413084,117.25681 854.841315,114.691764 C857.264374,112.129322 858.479782,108.819501 858.479782,104.770114 C858.479782,100.358755 857.264374,96.9109169 854.841315,94.4213899 C852.413084,91.9370712 848.981495,90.6923077 844.53879,90.6923077 C840.145218,90.6923077 836.713628,91.9370712 834.236264,94.4213899 C831.7589,96.9109169 830.520218,100.358755 830.520218,104.770114 C830.520218,108.819501 831.7589,112.129322 834.236264,114.691764 Z M832.852767,165.461448 C835.679238,168.487421 839.584061,170.000408 844.577579,170.000408 C849.568512,170.000408 853.47592,168.487421 856.302391,165.461448 C859.128862,162.438079 860.543391,158.180363 860.543391,152.690904 C860.543391,146.998324 859.103002,142.680714 856.227398,139.73026 C853.349207,136.78241 849.467659,135.308485 844.577579,135.308485 C839.6875,135.308485 835.803365,136.78241 832.927761,139.73026 C830.04957,142.680714 828.611768,146.998324 828.611768,152.690904 C828.611768,158.180363 830.02371,162.438079 832.852767,165.461448 Z M810.212554,137.154797 C813.020923,132.076787 817.13521,128.256561 822.547656,125.691515 C817.179171,122.103055 813.693276,118.22033 812.082214,114.038133 C810.473737,109.85854 809.666913,105.949775 809.666913,102.306628 C809.666913,94.205249 812.705434,87.2965513 818.774718,81.5779308 C824.849174,75.8593103 833.424268,73 844.5,73 C855.575732,73 864.14824,75.8593103 870.222696,81.5779308 C876.297152,87.2965513 879.333087,94.205249 879.333087,102.306628 C879.333087,105.949775 878.531435,109.85854 876.92813,114.038133 C875.324825,118.22033 871.846689,121.845248 866.501478,124.923303 C871.973401,128.001359 876.09286,132.076787 878.857268,137.154797 C881.616503,142.230203 883,147.899346 883,154.154412 C883,163.537012 879.545137,171.526415 872.640583,178.114807 C865.733443,184.705804 856.082583,188 843.695762,188 C831.30894,188 821.929608,184.705804 815.557765,178.114807 C809.185922,171.526415 806,163.537012 806,154.154412 C806,147.899346 807.404185,142.230203 810.212554,137.154797 Z" id="Fill-8" fill="#77BA49"></path>
        <path d="M938.025432,143.787671 L938.025432,95.6779354 L910.264172,143.787671 L938.025432,143.787671 Z M972,160.967298 L959.422789,160.967298 L959.422789,185 L938.025432,185 L938.025432,160.967298 L894,160.967298 L894,141.784946 L934.878533,74 L959.422789,74 L959.422789,143.787671 L972,143.787671 L972,160.967298 Z" id="Fill-9" fill="#77BA49"></path>
        <path d="M2.5,2.5 L2.5,258.5 L1021.5,258.5 L1021.5,2.5 L2.5,2.5 Z" id="Rectangle-Copy" stroke="#000000" stroke-width="5"></path>
        <path d="M745.5,3.5 L745.5,259.822063" id="Line-Copy" stroke="#000000" stroke-width="5" stroke-linecap="square"></path>
    </g>
</svg>